<?xml version="1.0" encoding="UTF-8"?>
<svg version="1.1" xmlns="http://www.w3.org/2000/svg" width="500" height="500">
<path d="M0 0 C165 0 330 0 500 0 C500 165 500 330 500 500 C335 500 170 500 0 500 C0 335 0 170 0 0 Z " fill="#2781CD" transform="translate(0,0)"/>
<path d="M0 0 C2.48383853 0.00317689 4.96650169 -0.0204354 7.45019531 -0.0456543 C22.52172641 -0.10665047 22.52172641 -0.10665047 29.85644531 3.31567383 C34.25081614 7.71004465 35.00779016 11.31133948 35.04394531 17.37817383 C34.98010953 25.5673933 33.43125673 32.59123956 30.85644531 40.31567383 C30.12395336 43.63697298 29.47761647 46.9719227 28.85644531 50.31567383 C28.19644531 50.31567383 27.53644531 50.31567383 26.85644531 50.31567383 C26.52644531 53.94567383 26.19644531 57.57567383 25.85644531 61.31567383 C25.19644531 61.31567383 24.53644531 61.31567383 23.85644531 61.31567383 C23.52644531 64.94567383 23.19644531 68.57567383 22.85644531 72.31567383 C22.19644531 72.31567383 21.53644531 72.31567383 20.85644531 72.31567383 C20.79585938 72.97954102 20.73527344 73.6434082 20.67285156 74.32739258 C19.84062809 83.09774764 19.84062809 83.09774764 18.85644531 87.31567383 C18.19644531 87.31567383 17.53644531 87.31567383 16.85644531 87.31567383 C16.72367187 88.40106445 16.59089844 89.48645508 16.45410156 90.60473633 C16.27578277 92.05005705 16.09739362 93.49536909 15.91894531 94.94067383 C15.83193359 95.65352539 15.74492187 96.36637695 15.65527344 97.10083008 C15.14861926 101.19159344 14.56754101 105.25410018 13.85644531 109.31567383 C13.19644531 109.31567383 12.53644531 109.31567383 11.85644531 109.31567383 C11.80746094 109.95633789 11.75847656 110.59700195 11.70800781 111.25708008 C11.63324219 112.12204102 11.55847656 112.98700195 11.48144531 113.87817383 C11.41183594 114.72508789 11.34222656 115.57200195 11.27050781 116.44458008 C10.85644531 119.31567383 10.85644531 119.31567383 9.82519531 122.44067383 C8.53515571 127.60083223 8.64190064 132.45970589 8.73144531 137.75317383 C8.74046875 138.77088867 8.74949219 139.78860352 8.75878906 140.8371582 C8.78219833 143.33024539 8.81498831 145.82283242 8.85644531 148.31567383 C9.84644531 148.64567383 10.83644531 148.97567383 11.85644531 149.31567383 C14.54394531 151.75317383 14.54394531 151.75317383 16.85644531 154.31567383 C16.85644531 154.97567383 16.85644531 155.63567383 16.85644531 156.31567383 C22.13644531 156.31567383 27.41644531 156.31567383 32.85644531 156.31567383 C32.85644531 155.65567383 32.85644531 154.99567383 32.85644531 154.31567383 C39.96487905 152.8698907 39.96487905 152.8698907 43.85644531 154.81567383 C45.85644531 157.31567383 45.85644531 157.31567383 46.41894531 160.81567383 C45.85644531 164.31567383 45.85644531 164.31567383 44.35644531 166.56567383 C38.36035185 170.76293925 32.19806001 171.90052321 25.04394531 171.87817383 C24.25930908 171.87648193 23.47467285 171.87479004 22.66625977 171.87304688 C14.04227681 171.6076799 8.32959237 168.28232027 1.85644531 162.75317383 C-3.14355469 156.65942383 -3.14355469 156.65942383 -3.14355469 153.31567383 C-3.80355469 153.31567383 -4.46355469 153.31567383 -5.14355469 153.31567383 C-8.09467584 142.35436669 -8.00404425 130.47861123 -6.14355469 119.31567383 C-5.48355469 119.31567383 -4.82355469 119.31567383 -4.14355469 119.31567383 C-4.05267578 118.10331055 -4.05267578 118.10331055 -3.95996094 116.86645508 C-3.87617188 115.79782227 -3.79238281 114.72918945 -3.70605469 113.62817383 C-3.62484375 112.57243164 -3.54363281 111.51668945 -3.45996094 110.42895508 C-3.17903787 107.66481086 -2.74198617 105.02621642 -2.14355469 102.31567383 C-1.48355469 102.31567383 -0.82355469 102.31567383 -0.14355469 102.31567383 C-0.05267578 101.2115918 -0.05267578 101.2115918 0.04003906 100.08520508 C0.12382812 99.10938477 0.20761719 98.13356445 0.29394531 97.12817383 C0.37515625 96.16524414 0.45636719 95.20231445 0.54003906 94.21020508 C0.83310682 91.52917781 1.28348285 88.94937523 1.85644531 86.31567383 C2.51644531 86.31567383 3.17644531 86.31567383 3.85644531 86.31567383 C3.94732422 85.22899414 3.94732422 85.22899414 4.04003906 84.12036133 C4.47127964 79.1445085 4.92692173 74.22886992 5.85644531 69.31567383 C6.51644531 69.31567383 7.17644531 69.31567383 7.85644531 69.31567383 C8.18644531 65.68567383 8.51644531 62.05567383 8.85644531 58.31567383 C9.51644531 58.31567383 10.17644531 58.31567383 10.85644531 58.31567383 C10.89382813 57.69821289 10.93121094 57.08075195 10.96972656 56.44458008 C11.44367947 50.33895143 12.66244904 45.02834336 14.85644531 39.31567383 C15.51644531 39.31567383 16.17644531 39.31567383 16.85644531 39.31567383 C16.98921875 38.24188477 17.12199219 37.1680957 17.25878906 36.06176758 C17.43714095 34.6255655 17.61552826 33.18936782 17.79394531 31.75317383 C17.88095703 31.04870117 17.96796875 30.34422852 18.05761719 29.6184082 C18.14462891 28.9190918 18.23164063 28.21977539 18.32128906 27.49926758 C18.39984131 26.86561279 18.47839355 26.23195801 18.55932617 25.57910156 C18.96516653 22.48744503 19.41182464 19.40196021 19.85644531 16.31567383 C15.10995963 16.26556882 10.36363388 16.22962736 5.61694336 16.20581055 C4.00819206 16.19586315 2.39945829 16.18230039 0.79077148 16.16479492 C-9.08522391 16.06015677 -18.41694524 16.40079144 -28.14355469 18.31567383 C-28.14355469 18.97567383 -28.14355469 19.63567383 -28.14355469 20.31567383 C-28.80355469 20.31567383 -29.46355469 20.31567383 -30.14355469 20.31567383 C-30.14355469 21.30567383 -30.14355469 22.29567383 -30.14355469 23.31567383 C-29.25667969 23.54254883 -28.36980469 23.76942383 -27.45605469 24.00317383 C-20.7603331 26.65619559 -18.20668973 31.64350158 -15.15917969 37.81567383 C-10.87772978 48.35462744 -11.86355116 65.15632621 -16.08886719 75.66723633 C-17.43086972 79.03715379 -18.28663381 82.4869723 -19.14355469 86.00317383 C-19.31870605 86.70998291 -19.49385742 87.41679199 -19.67431641 88.14501953 C-20.82734664 92.85331586 -21.8098832 97.57586809 -22.70996094 102.33911133 C-23.2484722 104.79394643 -24.15533517 107.00982829 -25.14355469 109.31567383 C-25.51226557 110.97487278 -25.85637142 112.64043812 -26.14355469 114.31567383 C-26.80355469 114.31567383 -27.46355469 114.31567383 -28.14355469 114.31567383 C-28.26730469 115.51192383 -28.39105469 116.70817383 -28.51855469 117.94067383 C-28.973918 121.61564819 -29.97109323 124.79828946 -31.14355469 128.31567383 C-31.67059002 131.11427228 -32.13974508 133.91638758 -32.58105469 136.72973633 C-33.12640981 139.23685501 -33.96700569 141.05669976 -35.14355469 143.31567383 C-37.15650669 154.18561465 -38.04996292 166.72242299 -31.83105469 176.34692383 C-30.62446646 178.01969387 -29.38643854 179.66969251 -28.14355469 181.31567383 C-28.14355469 181.97567383 -28.14355469 182.63567383 -28.14355469 183.31567383 C-26.82355469 183.64567383 -25.50355469 183.97567383 -24.14355469 184.31567383 C-24.14355469 184.97567383 -24.14355469 185.63567383 -24.14355469 186.31567383 C-18.77865873 187.2205102 -13.64038012 187.43871044 -8.20605469 187.37817383 C-7.42681641 187.37366211 -6.64757812 187.36915039 -5.84472656 187.36450195 C-3.944302 187.35284291 -2.04391763 187.3349126 -0.14355469 187.31567383 C-0.14355469 186.65567383 -0.14355469 185.99567383 -0.14355469 185.31567383 C3.48644531 184.32567383 7.11644531 183.33567383 10.85644531 182.31567383 C10.85644531 181.65567383 10.85644531 180.99567383 10.85644531 180.31567383 C13.49644531 180.31567383 16.13644531 180.31567383 18.85644531 180.31567383 C19.18644531 181.30567383 19.51644531 182.29567383 19.85644531 183.31567383 C20.51644531 183.31567383 21.17644531 183.31567383 21.85644531 183.31567383 C23.0723668 189.63846554 23.0723668 189.63846554 22.16894531 192.47192383 C20.42065843 194.92785064 19.15890722 195.06382322 16.23144531 195.56567383 C15.41417969 195.71520508 14.59691406 195.86473633 13.75488281 196.01879883 C12.81515625 196.16575195 12.81515625 196.16575195 11.85644531 196.31567383 C11.85644531 196.97567383 11.85644531 197.63567383 11.85644531 198.31567383 C4.43644092 202.37944151 -2.59226438 202.70116105 -10.89355469 202.69067383 C-11.88750244 202.69196289 -12.8814502 202.69325195 -13.90551758 202.69458008 C-19.35124055 202.61416668 -23.99588748 202.11304366 -29.14355469 200.31567383 C-29.14355469 199.65567383 -29.14355469 198.99567383 -29.14355469 198.31567383 C-30.13355469 198.31567383 -31.12355469 198.31567383 -32.14355469 198.31567383 C-32.63855469 197.32567383 -32.63855469 197.32567383 -33.14355469 196.31567383 C-33.88605469 195.88254883 -34.62855469 195.44942383 -35.39355469 195.00317383 C-39.14279408 192.7025042 -42.462314 190.25458962 -43.95605469 186.00317383 C-44.01792969 185.44629883 -44.07980469 184.88942383 -44.14355469 184.31567383 C-44.80355469 184.31567383 -45.46355469 184.31567383 -46.14355469 184.31567383 C-46.6518906 183.06904052 -47.14986614 181.81817996 -47.64355469 180.56567383 C-47.92199219 179.86958008 -48.20042969 179.17348633 -48.48730469 178.45629883 C-49.14355469 176.31567383 -49.14355469 176.31567383 -49.14355469 172.31567383 C-49.80355469 172.31567383 -50.46355469 172.31567383 -51.14355469 172.31567383 C-52.79167485 163.25101293 -53.7758748 151.64377137 -50.16699219 142.96801758 C-49.04727152 140.06614609 -48.58292808 137.39128754 -48.14355469 134.31567383 C-47.57569375 130.34064726 -46.74663399 126.9972704 -45.14355469 123.31567383 C-41.7887315 114.95496263 -40.57534822 106.16029911 -39.14355469 97.31567383 C-38.48355469 97.31567383 -37.82355469 97.31567383 -37.14355469 97.31567383 C-36.81355469 93.68567383 -36.48355469 90.05567383 -36.14355469 86.31567383 C-35.48355469 86.31567383 -34.82355469 86.31567383 -34.14355469 86.31567383 C-34.01980469 85.28442383 -33.89605469 84.25317383 -33.76855469 83.19067383 C-33.14355469 79.31567383 -33.14355469 79.31567383 -32.20605469 76.62817383 C-30.85515534 72.41654644 -30.25854339 68.19572189 -29.60839844 63.82739258 C-29.14355469 61.31567383 -29.14355469 61.31567383 -28.14355469 60.31567383 C-28.01675113 58.0892392 -27.96770574 55.85818605 -27.95605469 53.62817383 C-27.941875 52.40743164 -27.92769531 51.18668945 -27.91308594 49.92895508 C-28.14178985 46.34334282 -28.753628 43.61798192 -30.14355469 40.31567383 C-31.94282508 39.04078117 -31.94282508 39.04078117 -34.14355469 38.31567383 C-34.88347656 37.8284082 -35.62339844 37.34114258 -36.38574219 36.83911133 C-39.475685 35.13220241 -41.97409328 34.62559689 -45.45605469 34.12817383 C-47.05900391 33.8903418 -47.05900391 33.8903418 -48.69433594 33.64770508 C-49.50257813 33.53813477 -50.31082031 33.42856445 -51.14355469 33.31567383 C-51.36111135 27.87675733 -51.24783853 23.44486569 -49.14355469 18.31567383 C-48.48355469 18.31567383 -47.82355469 18.31567383 -47.14355469 18.31567383 C-46.88574219 17.72270508 -46.62792969 17.12973633 -46.36230469 16.51879883 C-45.04585573 14.13906418 -43.71774687 12.80588591 -41.64355469 11.06567383 C-41.03511719 10.54489258 -40.42667969 10.02411133 -39.79980469 9.48754883 C-38.14355469 8.31567383 -38.14355469 8.31567383 -36.14355469 8.31567383 C-36.14355469 7.65567383 -36.14355469 6.99567383 -36.14355469 6.31567383 C-34.88125418 5.6736148 -33.60786776 5.05336522 -32.33105469 4.44067383 C-31.62335938 4.09262695 -30.91566406 3.74458008 -30.18652344 3.38598633 C-20.36059384 -0.07011728 -10.28790515 -0.02752412 0 0 Z " fill="#F4A078" transform="translate(251.1435546875,129.684326171875)"/>
<path d="M0 0 C0.7734375 -0.01224609 1.546875 -0.02449219 2.34375 -0.03710938 C8.61537855 -0.05289368 14.91716817 0.13915986 19.8125 4.4375 C20.616875 5.345 21.42125 6.2525 22.25 7.1875 C24.076504 8.70893481 25.92686698 10.19260648 27.796875 11.66015625 C29.50266336 13.45306821 29.85569751 14.77499134 30.25 17.1875 C30.91 17.1875 31.57 17.1875 32.25 17.1875 C37.64458597 30.21157184 39.42434819 41.54224307 34.25 55.1875 C32.0625 58 32.0625 58 29.25 60.1875 C27.89531615 61.43693949 26.54118424 62.68697757 25.1875 63.9375 C22.58030977 66.31236634 20.7526296 67.59462728 17.25 68.1875 C17.25 68.8475 17.25 69.5075 17.25 70.1875 C14.28 70.6825 14.28 70.6825 11.25 71.1875 C11.25 71.8475 11.25 72.5075 11.25 73.1875 C3.74998764 74.80912429 -4.24998764 74.80912429 -11.75 73.1875 C-11.75 72.5275 -11.75 71.8675 -11.75 71.1875 C-13.4 70.8575 -15.05 70.5275 -16.75 70.1875 C-16.75 69.5275 -16.75 68.8675 -16.75 68.1875 C-17.430625 68.14625 -18.11125 68.105 -18.8125 68.0625 C-24.31618309 66.42310504 -27.57494118 63.15644644 -30.49609375 58.26171875 C-34.30928681 50.77249784 -35.93024159 45.27297695 -35.9375 36.875 C-35.94974609 36.14087891 -35.96199219 35.40675781 -35.97460938 34.65039062 C-35.98755942 29.78548996 -35.29283687 25.80381426 -33.75 21.1875 C-33.09 21.1875 -32.43 21.1875 -31.75 21.1875 C-31.65589844 20.44757812 -31.56179687 19.70765625 -31.46484375 18.9453125 C-30.64505733 15.7826392 -29.53596365 14.42001863 -27.3125 12.0625 C-25.20765739 9.80385887 -23.47295502 7.77193252 -21.75 5.1875 C-19.5859375 4.45703125 -19.5859375 4.45703125 -17.125 4 C-15.89910156 3.76216797 -15.89910156 3.76216797 -14.6484375 3.51953125 C-13.70871094 3.35517578 -13.70871094 3.35517578 -12.75 3.1875 C-12.75 2.5275 -12.75 1.8675 -12.75 1.1875 C-8.46320923 -0.01359216 -4.42499567 0.00361519 0 0 Z " fill="#F6A27C" transform="translate(263.75,38.8125)"/>
<path d="M0 0 C4.47777537 2.92112385 8.13243597 7.12387041 9.8203125 12.1875 C9.9057215 15.13714113 9.93614177 18.06253019 9.91796875 21.01171875 C9.9165538 21.87311966 9.91513885 22.73452057 9.91368103 23.62202454 C9.9080839 26.37305169 9.89553196 29.12399744 9.8828125 31.875 C9.87779713 33.7402332 9.87323429 35.60546767 9.86914062 37.47070312 C9.85811542 42.04300011 9.84085277 46.61523625 9.8203125 51.1875 C5.8603125 51.1875 1.9003125 51.1875 -2.1796875 51.1875 C-2.18379639 50.2495459 -2.18790527 49.3115918 -2.19213867 48.34521484 C-2.21920752 44.84445466 -2.26838091 41.34542275 -2.33227539 37.84521484 C-2.35538417 36.33425596 -2.36983438 34.82313762 -2.37524414 33.31201172 C-2.3845872 31.13148465 -2.42568381 28.95344036 -2.47265625 26.7734375 C-2.4883667 25.4642334 -2.50407715 24.1550293 -2.52026367 22.80615234 C-3.37263075 18.12870516 -4.8568372 16.52009473 -8.1796875 13.1875 C-9.1696875 12.6925 -9.1696875 12.6925 -10.1796875 12.1875 C-10.1796875 11.5275 -10.1796875 10.8675 -10.1796875 10.1875 C-13.8096875 10.1875 -17.4396875 10.1875 -21.1796875 10.1875 C-21.1796875 10.8475 -21.1796875 11.5075 -21.1796875 12.1875 C-21.7984375 12.373125 -22.4171875 12.55875 -23.0546875 12.75 C-26.28142476 14.93279285 -26.32106585 17.46031216 -27.1796875 21.1875 C-27.39712953 23.67010192 -27.53172508 26.16100952 -27.59375 28.65234375 C-27.61311615 29.33051651 -27.6324823 30.00868927 -27.6524353 30.70741272 C-27.71160749 32.84648566 -27.75836269 34.98561428 -27.8046875 37.125 C-27.84292495 38.58661036 -27.88197992 40.04819957 -27.921875 41.50976562 C-28.01725569 45.06881543 -28.10151317 48.62802587 -28.1796875 52.1875 C-32.4696875 52.1875 -36.7596875 52.1875 -41.1796875 52.1875 C-41.5096875 39.9775 -41.8396875 27.7675 -42.1796875 15.1875 C-43.4996875 14.5275 -44.8196875 13.8675 -46.1796875 13.1875 C-46.6746875 12.1975 -46.6746875 12.1975 -47.1796875 11.1875 C-54.4233335 10.27720274 -54.4233335 10.27720274 -61.0546875 12.453125 C-64.85395082 17.1117455 -65.36041105 20.8250526 -65.49609375 26.6015625 C-65.51687485 27.33120209 -65.53765594 28.06084167 -65.55906677 28.81259155 C-65.62450667 31.14579763 -65.68342118 33.47911721 -65.7421875 35.8125 C-65.78537803 37.39324095 -65.82899249 38.97397039 -65.87304688 40.5546875 C-65.98018231 44.43217504 -66.08146532 48.30977685 -66.1796875 52.1875 C-70.4696875 52.1875 -74.7596875 52.1875 -79.1796875 52.1875 C-79.1796875 34.6975 -79.1796875 17.2075 -79.1796875 -0.8125 C-75.2196875 -0.8125 -71.2596875 -0.8125 -67.1796875 -0.8125 C-67.1796875 1.1675 -67.1796875 3.1475 -67.1796875 5.1875 C-66.1896875 5.1875 -65.1996875 5.1875 -64.1796875 5.1875 C-63.8496875 4.1975 -63.5196875 3.2075 -63.1796875 2.1875 C-57.177953 -1.20417787 -49.88927145 -1.72160416 -43.1796875 -0.8125 C-38.70740941 0.69053909 -35.40594198 2.75468654 -32.1796875 6.1875 C-29.71168703 5.03576645 -28.13185185 4.13966435 -26.1796875 2.1875 C-25.4990625 2.0225 -24.8184375 1.8575 -24.1171875 1.6875 C-23.158125 1.44 -23.158125 1.44 -22.1796875 1.1875 C-21.8496875 0.5275 -21.5196875 -0.1325 -21.1796875 -0.8125 C-14.61760337 -2.99986138 -6.38497267 -2.77839815 0 0 Z " fill="#F6F9FB" transform="translate(386.1796875,388.8125)"/>
<path d="M0 0 C1.05316092 0.00062124 1.05316092 0.00062124 2.12759781 0.00125504 C36.23264596 0.02634584 69.90554008 0.19007111 103.49609375 6.64746094 C107.68860094 7.40118541 111.88846596 7.88715101 116.125 8.3125 C122.77603848 9.01474163 129.07816754 10.33147906 135.5 12.1875 C135.5 12.5175 135.5 12.8475 135.5 13.1875 C100.83773873 12.44076944 100.83773873 12.44076944 87.82543945 10.93603516 C71.20922414 9.03223018 54.50644446 9.01238151 37.8046875 8.984375 C36.06898687 8.98013393 36.06898687 8.98013393 34.29822159 8.97580719 C28.16642286 8.96091812 22.034647 8.95162555 15.90283203 8.94726562 C10.90926757 8.94289468 5.9158772 8.9290417 0.92236328 8.90625 C-25.0370068 8.78998482 -50.70417428 8.74345087 -76.50166321 11.86976624 C-81.20178321 12.36783798 -85.90285776 12.54356824 -90.625 12.6875 C-98.52773059 12.98160371 -106.22292541 13.86788824 -114.04345703 15.03125 C-121.01661624 16.04876075 -127.97322014 16.67354627 -135 17.1875 C-142.59191713 17.75979433 -149.79094259 18.60742568 -157.19921875 20.3984375 C-161.05000042 21.31897939 -164.91807997 22.04233236 -168.8125 22.75 C-172.93651513 23.5057299 -177.04476008 24.28103764 -181.125 25.25 C-189.10490492 27.07968918 -197.30587303 28.36157857 -205.5 28.1875 C-194.23802684 20.6795179 -178.10712271 18.89984424 -165.05859375 16.4609375 C-160.76379453 15.6569667 -156.51175515 14.73928341 -152.25697327 13.75086975 C-141.57530761 11.28367749 -130.85619114 9.61533011 -120 8.125 C-118.14678209 7.86584002 -116.29359228 7.60647908 -114.44042969 7.34692383 C-76.2519453 2.03460015 -38.5594796 -0.03678363 0 0 Z " fill="#DE9363" transform="translate(273.5,459.8125)"/>
<path d="M0 0 C5.2388241 4.07045326 6.38234723 7.45568242 7.25390625 13.828125 C7.33428002 16.58503189 7.37092322 19.31466779 7.3515625 22.0703125 C7.35014755 22.83868439 7.3487326 23.60705627 7.34727478 24.39871216 C7.34171308 26.83355739 7.32916785 29.26830794 7.31640625 31.703125 C7.31138629 33.36197783 7.30682426 35.02083212 7.30273438 36.6796875 C7.29175623 40.7292027 7.27451831 44.77864784 7.25390625 48.828125 C3.29390625 48.828125 -0.66609375 48.828125 -4.74609375 48.828125 C-5.24109375 46.848125 -5.24109375 46.848125 -5.74609375 44.828125 C-6.45958984 45.26125 -6.45958984 45.26125 -7.1875 45.703125 C-14.32446258 49.48847532 -21.79901843 50.01712637 -29.74609375 48.828125 C-34.15517397 46.3109028 -38.46772324 43.50022655 -40.74609375 38.828125 C-41.67166353 34.22115361 -41.77407644 29.96524692 -39.70703125 25.66796875 C-36.03636704 20.83868707 -31.51423744 19.15004966 -25.74609375 17.828125 C-22.37584137 17.51145699 -19.06448001 17.53833286 -15.68359375 17.640625 C-14.81798828 17.65416016 -13.95238281 17.66769531 -13.06054688 17.68164062 C-10.95545201 17.7165317 -8.85068401 17.77031835 -6.74609375 17.828125 C-7.01421875 16.549375 -7.28234375 15.270625 -7.55859375 13.953125 C-7.70941406 13.23382813 -7.86023438 12.51453125 -8.015625 11.7734375 C-8.66918213 9.45765951 -8.66918213 9.45765951 -11.74609375 7.828125 C-14.74439167 7.50920498 -14.74439167 7.50920498 -18.05859375 7.578125 C-19.16847656 7.57296875 -20.27835937 7.5678125 -21.421875 7.5625 C-24.83611746 7.83531843 -27.52614188 8.70891414 -30.74609375 9.828125 C-32.06609375 9.828125 -33.38609375 9.828125 -34.74609375 9.828125 C-36.06609375 7.188125 -37.38609375 4.548125 -38.74609375 1.828125 C-28.92409375 -6.422355 -10.57781884 -7.09920727 0 0 Z " fill="#EFF3F8" transform="translate(282.74609375,392.171875)"/>
<path d="M0 0 C2.10241603 -0.13496251 4.2072961 -0.23197307 6.3125 -0.3125 C7.48425781 -0.37050781 8.65601562 -0.42851562 9.86328125 -0.48828125 C13 0 13 0 14.80859375 2.2109375 C15.9017708 4.77004704 16.88610741 7.29284768 17.75 9.9375 C19.79276582 15.81144529 22.57363051 21.17968155 25.51171875 26.640625 C27.06989405 30.15776611 27.63704491 33.18655188 28 37 C28.99 37 29.98 37 31 37 C31.061875 36.05125 31.12375 35.1025 31.1875 34.125 C31.79127204 29.78484154 33.71414808 26.37853574 35.73828125 22.5390625 C37.23263238 19.53185435 38.24672687 16.51047402 39.24609375 13.3125 C42.90225564 2.09774436 42.90225564 2.09774436 45 0 C47.01964199 -0.07244053 49.04167124 -0.08377188 51.0625 -0.0625 C52.71958984 -0.04896484 52.71958984 -0.04896484 54.41015625 -0.03515625 C55.26480469 -0.02355469 56.11945313 -0.01195312 57 0 C56.20057689 9.19336575 51.96163882 17.1942374 48.15234375 25.484375 C44.49001934 33.4794154 40.78229421 41.65311737 38 50 C37.34 50 36.68 50 36 50 C35.7215625 51.670625 35.7215625 51.670625 35.4375 53.375 C33.59598442 60.76736968 28.41454544 67.90181819 22 72 C16.77903342 73.74032219 10.03668134 74.28066303 4.87890625 72.10546875 C3.25 71 3.25 71 1 69 C1.99 66.03 2.98 63.06 4 60 C4.99 60 5.98 60 7 60 C7 60.66 7 61.32 7 62 C10.75032398 61.98706785 14.33144318 61.81288885 18 61 C20.73529401 58.20109451 21.83537969 56.51400804 22.2578125 52.62890625 C21.93965736 49.38468794 20.84943157 47.48164772 19.1875 44.6875 C16.98541242 40.83899179 15.2140135 37.17674824 13.765625 33 C12.8913708 30.71623394 11.81519759 28.60724727 10.6875 26.4375 C8.12346778 21.44929187 6.06257064 16.32010104 4.05541992 11.08959961 C2.90862815 8.12992473 1.77095777 5.65643665 0 3 C0 2.01 0 1.02 0 0 Z " fill="#F0F3F9" transform="translate(117,388)"/>
<path d="M0 0 C4.29 0 8.58 0 13 0 C11.84825284 4.60698864 10.30095945 8.97596328 8.6875 13.4375 C8.39166016 14.28376953 8.09582031 15.13003906 7.79101562 16.00195312 C6.0755389 20.73340836 4.26652793 24.1154803 1 28 C-0.08919448 30.63661772 -0.08919448 30.63661772 -0.75 33.3125 C-0.99234375 34.19550781 -1.2346875 35.07851563 -1.484375 35.98828125 C-1.65453125 36.65214844 -1.8246875 37.31601562 -2 38 C-2.66 38 -3.32 38 -4 38 C-4.061875 38.78375 -4.12375 39.5675 -4.1875 40.375 C-5.11758079 44.52459122 -6.77789139 47.74185071 -8.75 51.484375 C-9.8472698 53.69263046 -10.63675705 55.78107863 -11.375 58.125 C-13.05670574 62.860838 -16.19494517 66.74840769 -20 70 C-20.99 70 -21.98 70 -23 70 C-23 70.66 -23 71.32 -23 72 C-29.44545246 73.82280895 -35.81195561 73.65201903 -42 71 C-42.99 70.34 -43.98 69.68 -45 69 C-43.94124926 65.59687262 -42.99097846 62.98646769 -41 60 C-40.01 60 -39.02 60 -38 60 C-38 60.66 -38 61.32 -38 62 C-33.18842727 61.88468998 -29.93423949 61.70067962 -26 58.75 C-23.8905648 55.84952661 -23.26611625 54.52604032 -23 51 C-24.07173849 48.08409285 -24.07173849 48.08409285 -25.75 45.1875 C-27.59900011 41.70728039 -29.36357742 38.33913958 -30.6875 34.625 C-31.91088549 31.02718748 -31.91088549 31.02718748 -33.5625 27.875 C-35.80045705 23.39908591 -37.13212724 18.91794564 -38 14 C-38.66 14 -39.32 14 -40 14 C-40.50757862 12.58603098 -41.00574925 11.16868271 -41.5 9.75 C-41.7784375 8.96109375 -42.056875 8.1721875 -42.34375 7.359375 C-43 5 -43 5 -43 1 C-41.22992286 0.91885894 -39.45877902 0.86074495 -37.6875 0.8125 C-36.70136719 0.77769531 -35.71523437 0.74289062 -34.69921875 0.70703125 C-31.47144699 1.05736827 -31.00866437 1.54227769 -29 4 C-27.7890625 6.41674805 -27.7890625 6.41674805 -26.625 9.26171875 C-26.19703125 10.29876953 -25.7690625 11.33582031 -25.328125 12.40429688 C-24.67070312 14.02948242 -24.67070312 14.02948242 -24 15.6875 C-23.34257812 17.28368164 -23.34257812 17.28368164 -22.671875 18.91210938 C-20.34982406 24.57385707 -18.11130569 30.25641511 -16 36 C-14.85170023 33.730384 -13.70628022 31.45939222 -12.5625 29.1875 C-12.23701172 28.54490234 -11.91152344 27.90230469 -11.57617188 27.24023438 C-10.20767324 24.51734534 -8.96516735 21.89550206 -8 19 C-7.34 19 -6.68 19 -6 19 C-5.85304688 18.07380859 -5.85304688 18.07380859 -5.703125 17.12890625 C-4.60016029 10.88194233 -2.76259248 5.7093578 0 0 Z " fill="#F0F4F9" transform="translate(223,388)"/>
<path d="M0 0 C0 0.66 0 1.32 0 2 C1.11375 2.0928125 1.11375 2.0928125 2.25 2.1875 C5.85122777 3.25149912 6.96756296 4.91370672 9 8 C9 8.66 9 9.32 9 10 C9.66 10 10.32 10 11 10 C13.44764915 15.9661448 14.22157734 21.47682414 12.08984375 27.625 C9.34001604 33.56674991 6.43590534 38.28900794 0.0859375 40.73828125 C-7.90185186 43.00508634 -14.3789013 41.90327569 -22 39 C-22 38.34 -22 37.68 -22 37 C-22.598125 36.7525 -23.19625 36.505 -23.8125 36.25 C-27.46206058 34.16453681 -29.4534951 30.8400503 -31 27 C-31.1953125 23.765625 -31.1953125 23.765625 -31.125 20.25 C-31.09792969 18.49429688 -31.09792969 18.49429688 -31.0703125 16.703125 C-31.04710937 15.81109375 -31.02390625 14.9190625 -31 14 C-30.34 14 -29.68 14 -29 14 C-28.7834375 12.824375 -28.7834375 12.824375 -28.5625 11.625 C-28 9 -28 9 -27 7 C-26.34 7 -25.68 7 -25 7 C-24.7215625 6.13375 -24.7215625 6.13375 -24.4375 5.25 C-19.24471423 -2.8778386 -8.34847734 -2.45074633 0 0 Z " fill="#369CD5" transform="translate(273,55)"/>
<path d="M0 0 C4.29 0 8.58 0 13 0 C13 21.78 13 43.56 13 66 C8.71 66 4.42 66 0 66 C0 44.22 0 22.44 0 0 Z " fill="#F5F7FB" transform="translate(93,374)"/>
<path d="M0 0 C16.83 0 33.66 0 51 0 C51 17.49 51 34.98 51 53 C50.67 53 50.34 53 50 53 C49.84144531 52.03320312 49.68289063 51.06640625 49.51953125 50.0703125 C46.48669996 32.70086721 38.4345644 20.01874533 24.0234375 9.56640625 C16.74612464 5.05672009 8.19043221 3.20981811 0 1 C0 0.67 0 0.34 0 0 Z " fill="#F8FCFE" transform="translate(449,0)"/>
<path d="M0 0 C0.33 0 0.66 0 1 0 C1 16.83 1 33.66 1 51 C-15.83 51 -32.66 51 -50 51 C-50 50.67 -50 50.34 -50 50 C-49.20078125 49.85304688 -48.4015625 49.70609375 -47.578125 49.5546875 C-34.23421393 46.82952256 -24.55701351 41.71088313 -15 32 C-14.12021484 31.11828125 -14.12021484 31.11828125 -13.22265625 30.21875 C-5.2981049 21.66910682 -2.63197014 11.02780783 0 0 Z " fill="#FBFCFE" transform="translate(499,449)"/>
<path d="M0 0 C16.17 0 32.34 0 49 0 C49 0.33 49 0.66 49 1 C48.34515625 1.14695313 47.6903125 1.29390625 47.015625 1.4453125 C30.59806757 5.48013594 17.67036838 14.22383832 8.39453125 28.46484375 C4.50177146 35.54159753 2.54922152 43.12479062 1 51 C0.67 51 0.34 51 0 51 C0 34.17 0 17.34 0 0 Z " fill="#FBFDFE" transform="translate(0,0)"/>
<path d="M0 0 C0.33 0 0.66 0 1 0 C1.20753906 1.01578125 1.41507812 2.0315625 1.62890625 3.078125 C3.67134535 12.43160658 6.50314288 20.01947119 12 28 C12.721875 29.051875 13.44375 30.10375 14.1875 31.1875 C24.07453477 41.07453477 35.25639831 47.5216456 49 50 C49 50.33 49 50.66 49 51 C32.83 51 16.66 51 0 51 C0 34.17 0 17.34 0 0 Z " fill="#FCFDFE" transform="translate(0,449)"/>
<path d="M0 0 C14.18676603 -0.04682035 28.37351999 -0.08190471 42.56034756 -0.10362434 C49.14825055 -0.11405001 55.73610154 -0.12818713 62.32397461 -0.15087891 C68.68468294 -0.17265047 75.04534133 -0.18457778 81.40608406 -0.18975449 C83.82969003 -0.19344248 86.25329334 -0.20064418 88.67687798 -0.21146011 C92.07818327 -0.22603217 95.47928362 -0.22797553 98.88061523 -0.22705078 C99.87683899 -0.23424133 100.87306274 -0.24143188 101.8994751 -0.24884033 C107.1956065 -0.23331591 111.99055352 0.2204893 117.12516785 1.54830933 C119.66788524 2.16090909 122.08292444 2.2265518 124.69140625 2.1953125 C125.65498047 2.18886719 126.61855469 2.18242187 127.61132812 2.17578125 C128.58521484 2.15902344 129.55910156 2.14226562 130.5625 2.125 C131.57119141 2.11597656 132.57988281 2.10695313 133.61914062 2.09765625 C136.07968457 2.07433356 138.53970896 2.04160763 141 2 C141 1.67 141 1.34 141 1 C147.02487844 0.78091351 152.17549506 1.50601953 158 3 C158.77472656 3.19078125 159.54945313 3.3815625 160.34765625 3.578125 C162.23382399 4.04384543 164.11722494 4.52074817 166 5 C166 5.33 166 5.66 166 6 C131.33773873 5.25326944 131.33773873 5.25326944 118.32543945 3.74853516 C102.58011148 1.94451221 86.72673989 1.8191508 70.8984375 1.68359375 C68.83907721 1.66295878 66.77972053 1.64196095 64.72036743 1.62062073 C59.36453215 1.56607413 54.00866308 1.51637482 48.652771 1.46777344 C43.16171347 1.41705812 37.67070352 1.36163634 32.1796875 1.30664062 C21.45316587 1.19988687 10.7266025 1.09826694 0 1 C0 0.67 0 0.34 0 0 Z " fill="#A7897B" transform="translate(243,467)"/>
<path d="M0 0 C0.79277344 0.01353516 1.58554687 0.02707031 2.40234375 0.04101562 C4.35185564 0.07624777 6.30101626 0.13005179 8.25 0.1875 C8.46875 6.8984375 8.46875 6.8984375 6.5 9.5 C2.11070001 12.79197499 -1.17826546 13.64346829 -6.62109375 13.5 C-8.75 13.1875 -8.75 13.1875 -11.3125 11.5625 C-13.17799134 8.48038388 -13.35285455 6.72927048 -12.75 3.1875 C-9.20321834 -0.80729618 -4.93079759 -0.15945365 0 0 Z " fill="#2C6EC1" transform="translate(267.75,418.8125)"/>
<path d="M0 0 C0 0.66 0 1.32 0 2 C1.32 2.33 2.64 2.66 4 3 C3.43716309 3.10546143 2.87432617 3.21092285 2.29443359 3.31958008 C-11.10188668 5.82247486 -11.10188668 5.82247486 -24.4375 8.625 C-33.19290605 10.5347012 -42.01417292 12.17592734 -51 12 C-41.91645682 5.94430454 -28.96561424 3.78618634 -18.375 1.625 C-17.5713501 1.45758301 -16.7677002 1.29016602 -15.93969727 1.11767578 C-10.54720846 0.0784429 -5.49041798 -0.14246594 0 0 Z " fill="#D59169" transform="translate(119,476)"/>
<path d="M0 0 C3.96 0 7.92 0 12 0 C12 1.98 12 3.96 12 6 C12.66 6 13.32 6 14 6 C14 6.66 14 7.32 14 8 C13.01 7.67 12.02 7.34 11 7 C11 5.35 11 3.7 11 2 C8.03 2 5.06 2 2 2 C2 18.17 2 34.34 2 51 C5.3 51 8.6 51 12 51 C12 41.43 12 31.86 12 22 C12.33 22 12.66 22 13 22 C13 32.23 13 42.46 13 53 C8.71 53 4.42 53 0 53 C0 35.51 0 18.02 0 0 Z " fill="#CCDCEC" transform="translate(307,388)"/>
<path d="M0 0 C-3.3 0.66 -6.6 1.32 -10 2 C-10.33 2.99 -10.66 3.98 -11 5 C-7.7 5 -4.4 5 -1 5 C-1 5.33 -1 5.66 -1 6 C-13.6597396 7.46019393 -26.26782256 8.45820522 -39 9 C-39 8.34 -39 7.68 -39 7 C-40.32 6.67 -41.64 6.34 -43 6 C-33.26400974 3.65813177 -23.53647699 1.64005151 -13.625 0.1875 C-12.72821533 0.05174561 -11.83143066 -0.08400879 -10.9074707 -0.22387695 C-10.064021 -0.34206787 -9.22057129 -0.46025879 -8.3515625 -0.58203125 C-7.60729004 -0.68749268 -6.86301758 -0.7929541 -6.09619141 -0.90161133 C-4 -1 -4 -1 0 0 Z " fill="#CC8C69" transform="translate(158,469)"/>
<path d="M0 0 C1.89878906 0.21849609 1.89878906 0.21849609 3.8359375 0.44140625 C7.29657141 0.82674885 10.7574893 1.16511892 14.2265625 1.46484375 C15.556875 1.58182617 15.556875 1.58182617 16.9140625 1.70117188 C18.72877549 1.85937092 20.54389413 2.01298059 22.359375 2.16210938 C27.48338249 2.62147739 32.10757392 3.39823311 37 5 C37 5.33 37 5.66 37 6 C33.0208966 6.05868218 29.04190647 6.0938239 25.0625 6.125 C23.94552734 6.14175781 22.82855469 6.15851563 21.67773438 6.17578125 C15.14480204 6.21409757 9.25872601 5.97094396 3 4 C2.67 3.01 2.34 2.02 2 1 C1.34 0.67 0.68 0.34 0 0 Z " fill="#EB9B5D" transform="translate(350,464)"/>
<path d="M0 0 C5.36702146 -0.02515187 10.73400691 -0.0430681 16.10107422 -0.05493164 C17.91813761 -0.0598893 19.73519717 -0.06665744 21.55224609 -0.07543945 C31.00842649 -0.11992066 40.43845062 -0.0747507 49.8828125 0.44140625 C50.96017166 0.49988991 50.96017166 0.49988991 52.05929565 0.55955505 C56.4218486 0.82659414 60.68595558 1.32955991 65 2 C65 2.33 65 2.66 65 3 C51.47 3 37.94 3 24 3 C24 2.34 24 1.68 24 1 C16.08 1 8.16 1 0 1 C0 0.67 0 0.34 0 0 Z " fill="#4070AF" transform="translate(296,468)"/>
<path d="M0 0 C1.01111343 0.00141495 2.02222687 0.0028299 3.0639801 0.00428772 C6.27315306 0.00985664 9.48225461 0.02240338 12.69140625 0.03515625 C14.87565003 0.04017527 17.05989491 0.04473747 19.24414062 0.04882812 C24.58075327 0.05981588 29.91732465 0.07652289 35.25390625 0.09765625 C35.25390625 0.42765625 35.25390625 0.75765625 35.25390625 1.09765625 C27.00390625 1.09765625 18.75390625 1.09765625 10.25390625 1.09765625 C10.25390625 1.75765625 10.25390625 2.41765625 10.25390625 3.09765625 C0.8864081 3.27974585 -8.40482455 2.7109166 -17.74609375 2.09765625 C-17.74609375 1.76765625 -17.74609375 1.43765625 -17.74609375 1.09765625 C-11.79930921 0.05921472 -6.02805089 -0.03207259 0 0 Z " fill="#3C66AB" transform="translate(236.74609375,467.90234375)"/>
<path d="M0 0 C0 0.66 0 1.32 0 2 C-10.84318706 4.43842006 -21.94908349 5.09042344 -33 6 C-29.53446727 3.68964485 -27.07353391 3.58193342 -23 3 C-22.01 2.34 -21.02 1.68 -20 1 C-18.03881836 0.57348633 -18.03881836 0.57348633 -15.83984375 0.33203125 C-15.04642578 0.24373047 -14.25300781 0.15542969 -13.43554688 0.06445312 C-12.19901367 -0.06026367 -12.19901367 -0.06026367 -10.9375 -0.1875 C-10.10927734 -0.28224609 -9.28105469 -0.37699219 -8.42773438 -0.47460938 C-2.26335094 -1.13167547 -2.26335094 -1.13167547 0 0 Z " fill="#2D5CB0" transform="translate(204,460)"/>
<path d="M0 0 C0.71607422 -0.020625 1.43214844 -0.04125 2.16992188 -0.0625 C6.92957035 -0.09778933 8.06066543 0.24862407 12.0625 3.25 C2.6575 3.745 2.6575 3.745 -6.9375 4.25 C-6.9375 3.59 -6.9375 2.93 -6.9375 2.25 C-8.2575 1.92 -9.5775 1.59 -10.9375 1.25 C-7.26091276 0.02447092 -3.82998884 0.02743054 0 0 Z " fill="#E2905D" transform="translate(125.9375,473.75)"/>
<path d="M0 0 C1.72985242 0.11512153 3.45888751 0.24255677 5.1875 0.375 C6.15042969 0.44460938 7.11335938 0.51421875 8.10546875 0.5859375 C11.01508938 1.00215853 13.32890774 1.79874096 16 3 C16 3.66 16 4.32 16 5 C11.89527342 4.8903028 7.79147852 4.75963024 3.6875 4.625 C2.52025391 4.5940625 1.35300781 4.563125 0.15039062 4.53125 C-0.96787109 4.49257813 -2.08613281 4.45390625 -3.23828125 4.4140625 C-4.26993408 4.3826416 -5.30158691 4.3512207 -6.36450195 4.31884766 C-9 4 -9 4 -12 2 C-7.05 2 -2.1 2 3 2 C2.01 1.34 1.02 0.68 0 0 Z " fill="#6B809B" transform="translate(402,470)"/>
<path d="M0 0 C0 0.33 0 0.66 0 1 C-1.30195313 1.19335938 -2.60390625 1.38671875 -3.9453125 1.5859375 C-5.67191712 1.84868168 -7.39847731 2.11171795 -9.125 2.375 C-10.40890625 2.56449219 -10.40890625 2.56449219 -11.71875 2.7578125 C-16.35224921 3.47065853 -20.55703405 4.46837926 -25 6 C-26.90687792 6.31611345 -28.82556727 6.56925217 -30.75 6.75 C-31.69359375 6.84796875 -32.6371875 6.9459375 -33.609375 7.046875 C-36 7 -36 7 -38 5 C-12.16609589 -0.49657534 -12.16609589 -0.49657534 0 0 Z " fill="#4F619C" transform="translate(146,476)"/>
<path d="M0 0 C-2.36986841 2.36986841 -3.32772225 2.40099291 -6.578125 2.8515625 C-7.49207031 2.98046875 -8.40601562 3.109375 -9.34765625 3.2421875 C-10.30542969 3.36851562 -11.26320313 3.49484375 -12.25 3.625 C-13.19230469 3.7590625 -14.13460937 3.893125 -15.10546875 4.03125 C-19.76971495 4.67233854 -24.27941604 5.17424974 -29 5 C-19.8860417 -1.0759722 -10.47516044 -0.32471795 0 0 Z " fill="#847381" transform="translate(97,483)"/>
<path d="M0 0 C-0.99 0.495 -0.99 0.495 -2 1 C-0.68 1.66 0.64 2.32 2 3 C-4.06696699 3.77040851 -9.88514973 4.09706112 -16 4 C-16 3.34 -16 2.68 -16 2 C-14.08654673 1.46748234 -12.1690705 0.94940517 -10.25 0.4375 C-9.18265625 0.14746094 -8.1153125 -0.14257812 -7.015625 -0.44140625 C-4.15664073 -0.97098494 -2.68402617 -0.98370862 0 0 Z " fill="#B3826C" transform="translate(100,480)"/>
<path d="M0 0 C2.10241603 -0.13496251 4.2072961 -0.23197307 6.3125 -0.3125 C7.48425781 -0.37050781 8.65601562 -0.42851562 9.86328125 -0.48828125 C13 0 13 0 14.98046875 2.39453125 C15.31691406 3.25433594 15.65335938 4.11414063 16 5 C15.67 5.66 15.34 6.32 15 7 C14.34 5.68 13.68 4.36 13 3 C9.7 3 6.4 3 3 3 C2.67 3.99 2.34 4.98 2 6 C0 3 0 3 0 0 Z " fill="#B1C6E4" transform="translate(117,388)"/>
<path d="M0 0 C6.70518586 -0.19818283 12.65176798 -0.30844801 19 2 C19 2.33 19 2.66 19 3 C6.5333109 3.20289367 6.5333109 3.20289367 1 2 C0.67 1.34 0.34 0.68 0 0 Z " fill="#CE9669" transform="translate(390,470)"/>
<path d="M0 0 C-0.99 0.495 -0.99 0.495 -2 1 C0.64 1 3.28 1 6 1 C2.71508627 3.18994248 1.16904361 3.35277339 -2.6875 3.625 C-4.17830078 3.73714844 -4.17830078 3.73714844 -5.69921875 3.8515625 C-6.45847656 3.90054687 -7.21773438 3.94953125 -8 4 C-7.6875 2.0625 -7.6875 2.0625 -7 0 C-3.86650268 -1.04449911 -3.01031744 -0.93423645 0 0 Z " fill="#3052A9" transform="translate(73,486)"/>
<path d="M0 0 C2.19401617 4.38803233 -0.36320332 11.01851131 -1.8046875 15.50390625 C-2.49845981 17.35066206 -3.24368349 19.17796477 -4 21 C-4.33 21 -4.66 21 -5 21 C-4.67 17.7 -4.34 14.4 -4 11 C-3.34 11 -2.68 11 -2 11 C-1.93941406 10.28972656 -1.87882813 9.57945312 -1.81640625 8.84765625 C-1.69072266 7.46900391 -1.69072266 7.46900391 -1.5625 6.0625 C-1.48128906 5.14597656 -1.40007812 4.22945312 -1.31640625 3.28515625 C-1 1 -1 1 0 0 Z " fill="#8294A1" transform="translate(221,195)"/>
<path d="M0 0 C0.66 0.33 1.32 0.66 2 1 C1.0925 1.721875 0.185 2.44375 -0.75 3.1875 C-2.92307318 4.98131041 -4.46083463 6.57604329 -6.25 8.8125 C-6.8275 9.534375 -7.405 10.25625 -8 11 C-8.66 11 -9.32 11 -10 11 C-10 11.66 -10 12.32 -10 13 C-10.66 12.67 -11.32 12.34 -12 12 C-11.51789063 11.45730469 -11.03578125 10.91460937 -10.5390625 10.35546875 C-9.90742188 9.64003906 -9.27578125 8.92460938 -8.625 8.1875 C-7.68527344 7.12595703 -7.68527344 7.12595703 -6.7265625 6.04296875 C-4.859401 3.91196181 -4.859401 3.91196181 -3 1 C-2.01 0.67 -1.02 0.34 0 0 Z " fill="#ADA099" transform="translate(245,43)"/>
<path d="M0 0 C2.10388569 -0.05402274 4.20816714 -0.09280256 6.3125 -0.125 C8.07013672 -0.15980469 8.07013672 -0.15980469 9.86328125 -0.1953125 C13 0 13 0 16 2 C16 2.66 16 3.32 16 4 C14.02 4.99 14.02 4.99 12 6 C12 4.35 12 2.7 12 1 C8.04 1 4.08 1 0 1 C0 0.67 0 0.34 0 0 Z " fill="#2B6ABE" transform="translate(162,387)"/>
<path d="M0 0 C5.61 0 11.22 0 17 0 C17 0.33 17 0.66 17 1 C11.72 1.66 6.44 2.32 1 3 C0.67 2.01 0.34 1.02 0 0 Z " fill="#385CA7" transform="translate(149,466)"/>
<path d="M0 0 C0.33 0.66 0.66 1.32 1 2 C0.34 2 -0.32 2 -1 2 C-1.2475 2.5775 -1.495 3.155 -1.75 3.75 C-3.18299988 6.32939979 -4.78424676 8.06121592 -7 10 C-7.66 10 -8.32 10 -9 10 C-7.61811547 6.78956118 -6.07578097 4.95063635 -3.375 2.75 C-2.74335938 2.22921875 -2.11171875 1.7084375 -1.4609375 1.171875 C-0.73777344 0.59179688 -0.73777344 0.59179688 0 0 Z " fill="#CE9F85" transform="translate(213,138)"/>
<path d="M0 0 C0.33 0 0.66 0 1 0 C0.40546697 11.70615034 0.40546697 11.70615034 -3 16 C-4.57159226 12.85681547 -3.04018399 10.07066611 -2.0625 6.875 C-1.86720703 6.21628906 -1.67191406 5.55757812 -1.47070312 4.87890625 C-0.98695014 3.25066448 -0.49430925 1.62506818 0 0 Z " fill="#7192A6" transform="translate(223,244)"/>
<path d="M0 0 C0.99 0 1.98 0 3 0 C2.79375 0.598125 2.5875 1.19625 2.375 1.8125 C1.69328085 4.28450846 1.69328085 4.28450846 4 7 C2.02 6.34 0.04 5.68 -2 5 C-2 4.01 -2 3.02 -2 2 C-1.34 2 -0.68 2 0 2 C0 1.34 0 0.68 0 0 Z " fill="#5093BC" transform="translate(223,148)"/>
<path d="M0 0 C0.33 0 0.66 0 1 0 C1.49230769 6.4 1.49230769 6.4 -1 9.4375 C-1.99 10.2109375 -1.99 10.2109375 -3 11 C-3.99 10.67 -4.98 10.34 -6 10 C-5.34 10 -4.68 10 -4 10 C-2.26337666 6.77484237 -1.1094072 3.48670834 0 0 Z " fill="#DA9D7E" transform="translate(296,287)"/>
<path d="M0 0 C3.63 0 7.26 0 11 0 C7.83759418 2.10827055 6.49342531 2.33817465 2.8125 2.625 C1.46091797 2.73714844 1.46091797 2.73714844 0.08203125 2.8515625 C-0.94857422 2.92503906 -0.94857422 2.92503906 -2 3 C-1.34 2.67 -0.68 2.34 0 2 C0 1.34 0 0.68 0 0 Z " fill="#425CA5" transform="translate(94,477)"/>
<path d="M0 0 C1.32 0 2.64 0 4 0 C3.25 4.75 3.25 4.75 1 7 C0 6 0 6 -0.0625 2.9375 C-0.041875 1.968125 -0.02125 0.99875 0 0 Z " fill="#306AC0" transform="translate(206,418)"/>
<path d="M0 0 C1 2 1 2 0.25 5 C-1 8 -1 8 -4 10 C-3.52449439 8.51965236 -3.04448784 7.04074979 -2.5625 5.5625 C-2.29566406 4.73878906 -2.02882812 3.91507812 -1.75390625 3.06640625 C-1 1 -1 1 0 0 Z " fill="#89ABDA" transform="translate(216,434)"/>
<path d="M0 0 C0.99 0.33 1.98 0.66 3 1 C0.03 3.475 0.03 3.475 -3 6 C-2.625 3.5625 -2.625 3.5625 -2 1 C-1.34 0.67 -0.68 0.34 0 0 Z " fill="#4E8ECF" transform="translate(363,401)"/>
</svg>
